<svg width="618" height="800" viewBox="0 0 618 800" fill="none" xmlns="http://www.w3.org/2000/svg">
<g clip-path="url(#clip0_245_2)" filter="url(#filter0_d_245_2)">
<path fill-rule="evenodd" clip-rule="evenodd" d="M804 727.086L747.44 780.952L521.16 565.448L577.72 511.581L804 727.086ZM284 476.19C173.72 476.19 84.0002 390.743 84.0002 285.714C84.0002 180.686 173.72 95.2381 284 95.2381C394.28 95.2381 484 180.686 484 285.714C484 390.743 394.28 476.19 284 476.19ZM284 19.0476C129.36 19.0476 4 138.438 4 285.714C4 432.99 129.36 552.381 284 552.381C438.64 552.381 564 432.99 564 285.714C564 138.438 438.64 19.0476 284 19.0476Z" fill="#E9E9E9"/>
</g>
<defs>
<filter id="filter0_d_245_2" x="0" y="0" width="808" height="808" filterUnits="userSpaceOnUse" color-interpolation-filters="sRGB">
<feFlood flood-opacity="0" result="BackgroundImageFix"/>
<feColorMatrix in="SourceAlpha" type="matrix" values="0 0 0 0 0 0 0 0 0 0 0 0 0 0 0 0 0 0 127 0" result="hardAlpha"/>
<feOffset dy="4"/>
<feGaussianBlur stdDeviation="2"/>
<feComposite in2="hardAlpha" operator="out"/>
<feColorMatrix type="matrix" values="0 0 0 0 0 0 0 0 0 0 0 0 0 0 0 0 0 0 0.25 0"/>
<feBlend mode="normal" in2="BackgroundImageFix" result="effect1_dropShadow_245_2"/>
<feBlend mode="normal" in="SourceGraphic" in2="effect1_dropShadow_245_2" result="shape"/>
</filter>
<clipPath id="clip0_245_2">
<rect width="800" height="800" fill="white" transform="translate(4)"/>
</clipPath>
</defs>
</svg>
