<svg width="103" height="100" viewBox="0 0 103 100" fill="none" xmlns="http://www.w3.org/2000/svg">
<path d="M11.536 11.1999C6.592 15.7999 6.592 84.1999 11.536 88.7999C16.274 93.5999 86.726 93.5999 91.464 88.7999C96.408 84.1999 96.408 15.7999 91.464 11.1999C86.726 6.39989 16.274 6.39989 11.536 11.1999ZM89.61 49.9999V86.9999H51.5H13.39L12.772 51.9999C12.566 32.7999 12.772 15.9999 13.39 14.5999C14.008 12.3999 22.454 11.9999 51.912 12.3999L89.61 12.9999V49.9999Z" fill="white"/>
<path d="M41.2 34.7999C39.552 36.9999 39.346 37.9999 40.994 37.9999C42.23 37.9999 43.26 39.9999 43.26 42.3999C43.26 46.5999 42.848 46.3999 38.934 40.3999C35.638 35.5999 33.166 33.9999 28.84 33.9999C25.544 33.9999 22.248 34.9999 21.63 35.9999C19.776 38.9999 29.664 54.5999 37.286 60.7999C44.084 66.3999 56.65 67.9999 58.298 63.3999C58.916 61.5999 60.152 61.9999 63.242 64.3999C67.774 68.3999 79.31 69.1999 81.576 65.7999C82.194 64.5999 80.958 60.9999 78.486 57.7999L73.954 51.7999L78.28 44.9999C83.636 36.5999 82.4 33.9999 73.13 33.9999C67.156 33.9999 65.508 35.1999 62.418 40.3999L58.916 46.9999L57.68 39.9999C56.856 33.9999 55.826 32.9999 50.264 32.3999C46.35 31.9999 42.848 32.9999 41.2 34.7999ZM53.972 43.3999C54.796 53.1999 58.504 53.7999 64.272 45.1999C67.362 40.3999 70.658 37.9999 73.748 37.9999H78.486L74.366 43.1999C68.804 49.9999 69.01 53.5999 74.572 59.3999L78.898 63.9999H74.366C71.688 63.9999 67.362 62.1999 64.478 59.9999C59.74 56.3999 58.71 56.1999 55.62 58.9999C51.5 62.5999 45.114 62.7999 40.788 59.3999C36.874 56.5999 26.78 42.1999 26.78 39.7999C26.78 35.3999 32.96 38.7999 36.874 45.1999C42.23 53.7999 46.144 53.1999 46.968 43.3999C47.38 38.7999 48.616 35.9999 50.47 35.9999C52.324 35.9999 53.56 38.7999 53.972 43.3999Z" fill="white"/>
</svg>
